<svg width="24" height="24" viewBox="0 0 24 24" fill="none" xmlns="http://www.w3.org/2000/svg">
<path d="M7.02544 4.44502C8.21553 3.65982 9.00657 3.14828 10.5 3M3 10.5C3.14828 9.00657 3.65982 8.21553 4.44502 7.02544M19.688 7.23308C20.3979 8.37566 20.8603 9.09261 21 10.5M13.5 3C14.9934 3.14828 15.7845 3.65982 16.9746 4.44502M21 13.5C20.8517 14.9934 20.3402 15.7845 19.555 16.9746M16.9746 19.555C15.7845 20.3402 14.9934 20.8517 13.5 21M10.5 21C9.00657 20.8517 8.21553 20.3402 7.02544 19.555M4.44502 16.9746C3.65982 15.7845 3.14828 14.9934 3 13.5M21 5C21 6.10457 20.1046 7 19 7C17.8954 7 17 6.10457 17 5C17 3.89543 17.8954 3 19 3C20.1046 3 21 3.89543 21 5ZM21 19C21 20.1046 20.1046 21 19 21C17.8954 21 17 20.1046 17 19C17 17.8954 17.8954 17 19 17C20.1046 17 21 17.8954 21 19ZM7 19C7 20.1046 6.10457 21 5 21C3.89543 21 3 20.1046 3 19C3 17.8954 3.89543 17 5 17C6.10457 17 7 17.8954 7 19ZM7 5C7 6.10457 6.10457 7 5 7C3.89543 7 3 6.10457 3 5C3 3.89543 3.89543 3 5 3C6.10457 3 7 3.89543 7 5ZM12 9L9 12L12 15L15 12L12 9Z" stroke="#97A2AC" stroke-width="1.5" stroke-linecap="round" stroke-linejoin="round"/>
</svg>
