<svg width="24" height="24" viewBox="0 0 24 24" fill="none" xmlns="http://www.w3.org/2000/svg">
<path d="M17.6773 13.3508C17.3188 13.5582 17.1962 14.017 17.4037 14.3755C17.6111 14.7341 18.0699 14.8566 18.4284 14.6492L17.6773 13.3508ZM9.3508 5.57159C9.14339 5.93014 9.26591 6.38893 9.62446 6.59634C9.983 6.80375 10.4418 6.68123 10.6492 6.32268L9.3508 5.57159ZM9 12L9.53033 11.4697C9.23744 11.1768 8.76256 11.1768 8.46967 11.4697L9 12ZM6 15L5.46967 14.4697C5.17678 14.7626 5.17678 15.2374 5.46967 15.5303L6 15ZM9 18L8.46967 18.5303C8.76256 18.8232 9.23744 18.8232 9.53033 18.5303L9 18ZM12 15L12.5303 15.5303C12.8232 15.2374 12.8232 14.7626 12.5303 14.4697L12 15ZM3.75 3C3.75 2.58579 3.41421 2.25 3 2.25C2.58579 2.25 2.25 2.58579 2.25 3H3.75ZM3 6H2.25C2.25 6.41421 2.58579 6.75 3 6.75V6ZM6 6.75C6.41421 6.75 6.75 6.41421 6.75 6C6.75 5.58579 6.41421 5.25 6 5.25V6.75ZM20.25 21C20.25 21.4142 20.5858 21.75 21 21.75C21.4142 21.75 21.75 21.4142 21.75 21H20.25ZM21 18H21.75C21.75 17.5858 21.4142 17.25 21 17.25V18ZM18 17.25C17.5858 17.25 17.25 17.5858 17.25 18C17.25 18.4142 17.5858 18.75 18 18.75V17.25ZM6.53033 3.53033C6.82322 3.23744 6.82322 2.76256 6.53033 2.46967C6.23744 2.17678 5.76256 2.17678 5.46967 2.46967L6.53033 3.53033ZM17.4697 20.4697C17.1768 20.7626 17.1768 21.2374 17.4697 21.5303C17.7626 21.8232 18.2374 21.8232 18.5303 21.5303L17.4697 20.4697ZM14.25 15C14.25 17.8995 11.8995 20.25 9 20.25V21.75C12.7279 21.75 15.75 18.7279 15.75 15H14.25ZM9 20.25C6.10051 20.25 3.75 17.8995 3.75 15H2.25C2.25 18.7279 5.27208 21.75 9 21.75V20.25ZM3.75 15C3.75 12.1005 6.10051 9.75 9 9.75V8.25C5.27208 8.25 2.25 11.2721 2.25 15H3.75ZM9 9.75C11.8995 9.75 14.25 12.1005 14.25 15H15.75C15.75 11.2721 12.7279 8.25 9 8.25V9.75ZM15.1057 3.75C17.9468 3.75 20.25 6.05317 20.25 8.89427H21.75C21.75 5.22474 18.7753 2.25 15.1057 2.25V3.75ZM20.25 8.89427C20.25 10.7974 19.2169 12.4602 17.6773 13.3508L18.4284 14.6492C20.4124 13.5015 21.75 11.3545 21.75 8.89427H20.25ZM10.6492 6.32268C11.5398 4.7831 13.2026 3.75 15.1057 3.75V2.25C12.6455 2.25 10.4985 3.58757 9.3508 5.57159L10.6492 6.32268ZM8.46967 11.4697L5.46967 14.4697L6.53033 15.5303L9.53033 12.5303L8.46967 11.4697ZM5.46967 15.5303L8.46967 18.5303L9.53033 17.4697L6.53033 14.4697L5.46967 15.5303ZM9.53033 18.5303L12.5303 15.5303L11.4697 14.4697L8.46967 17.4697L9.53033 18.5303ZM12.5303 14.4697L9.53033 11.4697L8.46967 12.5303L11.4697 15.5303L12.5303 14.4697ZM2.25 3V6H3.75V3H2.25ZM3 6.75H6V5.25H3V6.75ZM21.75 21V18H20.25V21H21.75ZM21 17.25H18V18.75H21V17.25ZM3.53033 6.53033L6.53033 3.53033L5.46967 2.46967L2.46967 5.46967L3.53033 6.53033ZM20.4697 17.4697L17.4697 20.4697L18.5303 21.5303L21.5303 18.5303L20.4697 17.4697Z" fill="#97A2AC"/>
</svg>
