<svg width="30" height="30" viewBox="0 0 30 30" fill="none" xmlns="http://www.w3.org/2000/svg">
<path d="M11.9999 18.75C11.9999 20.4069 13.343 21.75 14.9999 21.75C16.6567 21.75 17.9999 20.4069 17.9999 18.75M19.9373 18.75H10.0626C9.54444 18.75 9.18238 18.237 9.35598 17.7487L10.0006 15.9356C10.2208 15.3164 10.3333 14.6641 10.3333 14.007V12.9167C10.3333 10.3393 12.4226 8.25 15 8.25C17.5773 8.25 19.6666 10.3393 19.6666 12.9167V14.007C19.6666 14.6641 19.7792 15.3164 19.9993 15.9356L20.644 17.7487C20.8176 18.237 20.4555 18.75 19.9373 18.75Z" stroke="#838690" stroke-width="1.125"/>
<rect x="0.5" y="0.5" width="29" height="29" rx="8.5" stroke="#838690"/>
</svg>
