<svg width="30" height="30" viewBox="0 0 30 30" fill="none" xmlns="http://www.w3.org/2000/svg">
<rect width="30" height="30" rx="9" fill="#F4F8FB"/>
<path d="M15 7.125C15.6213 7.125 16.125 7.62868 16.125 8.25V14.25C16.125 14.6664 15.8988 15.03 15.5625 15.2245V21.75C15.5625 22.0607 15.3107 22.3125 15 22.3125C14.6893 22.3125 14.4375 22.0607 14.4375 21.75V15.2245C14.1012 15.03 13.875 14.6664 13.875 14.25V8.25C13.875 7.62868 14.3787 7.125 15 7.125Z" fill="#202246"/>
<path d="M9.1875 11.7755V8.25C9.1875 7.93934 9.43934 7.6875 9.75 7.6875C10.0607 7.6875 10.3125 7.93934 10.3125 8.25V11.7755C10.6488 11.97 10.875 12.3336 10.875 12.75V18C10.875 18.4164 10.6488 18.78 10.3125 18.9745V21.75C10.3125 22.0607 10.0607 22.3125 9.75 22.3125C9.43934 22.3125 9.1875 22.0607 9.1875 21.75V18.9745C8.85124 18.78 8.625 18.4164 8.625 18V12.75C8.625 12.3336 8.85124 11.97 9.1875 11.7755Z" fill="#202246"/>
<path d="M19.6875 15.5255V8.25C19.6875 7.93934 19.9393 7.6875 20.25 7.6875C20.5607 7.6875 20.8125 7.93934 20.8125 8.25V15.5255C21.1488 15.72 21.375 16.0836 21.375 16.5V19.5C21.375 19.9164 21.1488 20.28 20.8125 20.4745V21.75C20.8125 22.0607 20.5607 22.3125 20.25 22.3125C19.9393 22.3125 19.6875 22.0607 19.6875 21.75V20.4745C19.3512 20.28 19.125 19.9164 19.125 19.5V16.5C19.125 16.0836 19.3512 15.72 19.6875 15.5255Z" fill="#202246"/>
</svg>
