<svg width="24" height="24" viewBox="0 0 24 24" fill="none" xmlns="http://www.w3.org/2000/svg">
<path d="M4 8.25C3.58579 8.25 3.25 8.58579 3.25 9C3.25 9.41421 3.58579 9.75 4 9.75V8.25ZM20 9.75C20.4142 9.75 20.75 9.41421 20.75 9C20.75 8.58579 20.4142 8.25 20 8.25V9.75ZM4 14.25C3.58579 14.25 3.25 14.5858 3.25 15C3.25 15.4142 3.58579 15.75 4 15.75V14.25ZM20 15.75C20.4142 15.75 20.75 15.4142 20.75 15C20.75 14.5858 20.4142 14.25 20 14.25V15.75ZM20.25 12C20.25 16.5563 16.5563 20.25 12 20.25V21.75C17.3848 21.75 21.75 17.3848 21.75 12H20.25ZM12 20.25C7.44365 20.25 3.75 16.5563 3.75 12H2.25C2.25 17.3848 6.61522 21.75 12 21.75V20.25ZM3.75 12C3.75 7.44365 7.44365 3.75 12 3.75V2.25C6.61522 2.25 2.25 6.61522 2.25 12H3.75ZM12 3.75C16.5563 3.75 20.25 7.44365 20.25 12H21.75C21.75 6.61522 17.3848 2.25 12 2.25V3.75ZM15.25 12C15.25 14.4055 14.8152 16.5471 14.1431 18.0594C13.8066 18.8164 13.4254 19.3826 13.0399 19.7494C12.6584 20.1126 12.3082 20.25 12 20.25V21.75C12.7963 21.75 13.4985 21.3838 14.074 20.836C14.6457 20.292 15.1264 19.5402 15.5138 18.6686C16.2894 16.9234 16.75 14.5651 16.75 12H15.25ZM12 20.25C11.6918 20.25 11.3416 20.1126 10.9601 19.7494C10.5746 19.3826 10.1934 18.8164 9.85693 18.0594C9.18483 16.5471 8.75 14.4055 8.75 12H7.25C7.25 14.5651 7.7106 16.9234 8.48621 18.6686C8.8736 19.5402 9.35431 20.292 9.92598 20.836C10.5015 21.3838 11.2037 21.75 12 21.75V20.25ZM8.75 12C8.75 9.59454 9.18483 7.45286 9.85693 5.94064C10.1934 5.18359 10.5746 4.61737 10.9601 4.25056C11.3416 3.88743 11.6918 3.75 12 3.75V2.25C11.2037 2.25 10.5015 2.61625 9.92598 3.16397C9.35431 3.70801 8.8736 4.45981 8.48621 5.33143C7.7106 7.07658 7.25 9.4349 7.25 12H8.75ZM12 3.75C12.3082 3.75 12.6584 3.88743 13.0399 4.25056C13.4254 4.61737 13.8066 5.18359 14.1431 5.94064C14.8152 7.45286 15.25 9.59454 15.25 12H16.75C16.75 9.4349 16.2894 7.07658 15.5138 5.33143C15.1264 4.45981 14.6457 3.70801 14.074 3.16397C13.4985 2.61625 12.7963 2.25 12 2.25V3.75ZM4 9.75H20V8.25H4V9.75ZM4 15.75H20V14.25H4V15.75Z" fill="#97A2AC"/>
</svg>
