<svg width="24" height="24" viewBox="0 0 24 24" fill="none" xmlns="http://www.w3.org/2000/svg">
<path d="M10.0902 21.7272C10.5014 21.6774 10.7944 21.3037 10.7446 20.8925C10.6948 20.4812 10.3211 20.1883 9.90984 20.238L10.0902 21.7272ZM3.75 9C3.75 8.58579 3.41421 8.25 3 8.25C2.58579 8.25 2.25 8.58579 2.25 9H3.75ZM3.75 12C3.75 11.5858 3.41421 11.25 3 11.25C2.58579 11.25 2.25 11.5858 2.25 12H3.75ZM9.0607 14.7075C9.47355 14.674 9.78106 14.3122 9.74754 13.8993C9.71402 13.4864 9.35216 13.1789 8.9393 13.2125L9.0607 14.7075ZM9 18.25C9.41421 18.25 9.75 17.9142 9.75 17.5C9.75 17.0858 9.41421 16.75 9 16.75V18.25ZM3.75 15C3.75 14.5858 3.41421 14.25 3 14.25C2.58579 14.25 2.25 14.5858 2.25 15H3.75ZM3.75 6C3.75 5.58579 3.41421 5.25 3 5.25C2.58579 5.25 2.25 5.58579 2.25 6H3.75ZM13.75 6C13.75 5.58579 13.4142 5.25 13 5.25C12.5858 5.25 12.25 5.58579 12.25 6H13.75ZM16.4697 4.46967C16.1768 4.76256 16.1768 5.23744 16.4697 5.53033C16.7626 5.82322 17.2374 5.82322 17.5303 5.53033L16.4697 4.46967ZM19 3L19.5303 2.46967C19.2374 2.17678 18.7626 2.17678 18.4697 2.46967L19 3ZM20.4697 5.53033C20.7626 5.82322 21.2374 5.82322 21.5303 5.53033C21.8232 5.23744 21.8232 4.76256 21.5303 4.46967L20.4697 5.53033ZM18.25 8C18.25 8.41421 18.5858 8.75 19 8.75C19.4142 8.75 19.75 8.41421 19.75 8H18.25ZM20.25 16C20.25 18.3472 18.3472 20.25 16 20.25V21.75C19.1756 21.75 21.75 19.1756 21.75 16H20.25ZM16 20.25C13.6528 20.25 11.75 18.3472 11.75 16H10.25C10.25 19.1756 12.8244 21.75 16 21.75V20.25ZM11.75 16C11.75 13.6528 13.6528 11.75 16 11.75V10.25C12.8244 10.25 10.25 12.8244 10.25 16H11.75ZM16 11.75C18.3472 11.75 20.25 13.6528 20.25 16H21.75C21.75 12.8244 19.1756 10.25 16 10.25V11.75ZM8 20.2326C6.73109 20.2326 5.6187 19.9242 4.84869 19.4649C4.06307 18.9963 3.75 18.4545 3.75 18H2.25C2.25 19.1927 3.05622 20.1423 4.08024 20.7531C5.11988 21.3733 6.50749 21.7326 8 21.7326V20.2326ZM9.90984 20.238C9.81032 20.2501 9.45845 20.2525 9.01606 20.2473C8.61843 20.2427 8.17461 20.2326 8 20.2326V21.7326C8.16786 21.7326 8.56248 21.7421 8.99846 21.7472C9.38967 21.7518 9.86657 21.7542 10.0902 21.7272L9.90984 20.238ZM12.25 5.5C12.25 5.75323 12.0252 6.1844 11.2001 6.59695C10.4199 6.98706 9.28952 7.25 8 7.25V8.75C9.4719 8.75 10.8415 8.45329 11.8709 7.93859C12.8555 7.44631 13.75 6.62748 13.75 5.5H12.25ZM8 7.25C6.71048 7.25 5.58011 6.98706 4.79988 6.59695C3.97478 6.1844 3.75 5.75323 3.75 5.5H2.25C2.25 6.62748 3.14451 7.44631 4.12906 7.93859C5.15847 8.45329 6.5281 8.75 8 8.75V7.25ZM3.75 5.5C3.75 5.24677 3.97478 4.8156 4.79988 4.40305C5.58011 4.01294 6.71048 3.75 8 3.75V2.25C6.5281 2.25 5.15847 2.54671 4.12906 3.06141C3.14451 3.55369 2.25 4.37252 2.25 5.5H3.75ZM8 3.75C9.28952 3.75 10.4199 4.01294 11.2001 4.40305C12.0252 4.8156 12.25 5.24677 12.25 5.5H13.75C13.75 4.37252 12.8555 3.55369 11.8709 3.06141C10.8415 2.54671 9.4719 2.25 8 2.25V3.75ZM12.25 9C12.25 9.00347 12.2513 9.08265 12.0917 9.23357C11.9306 9.38599 11.6571 9.55781 11.257 9.71786C10.4609 10.0363 9.30972 10.25 8 10.25V11.75C9.4517 11.75 10.8005 11.516 11.8141 11.1106C12.3188 10.9087 12.7775 10.6495 13.1224 10.3234C13.4688 9.99578 13.75 9.54882 13.75 9H12.25ZM8 10.25C6.69028 10.25 5.53908 10.0363 4.74301 9.71786C4.34289 9.55781 4.06943 9.38599 3.90826 9.23357C3.74867 9.08265 3.75 9.00347 3.75 9H2.25C2.25 9.54882 2.53115 9.99578 2.87759 10.3234C3.22245 10.6495 3.68122 10.9087 4.18592 11.1106C5.19949 11.516 6.5483 11.75 8 11.75V10.25ZM8 13.25C6.69028 13.25 5.53908 13.0363 4.74301 12.7179C4.34289 12.5578 4.06943 12.386 3.90826 12.2336C3.74867 12.0827 3.75 12.0035 3.75 12H2.25C2.25 12.5488 2.53115 12.9958 2.87759 13.3234C3.22245 13.6495 3.68122 13.9087 4.18592 14.1106C5.19949 14.516 6.5483 14.75 8 14.75V13.25ZM8.9393 13.2125C8.63661 13.237 8.32244 13.25 8 13.25V14.75C8.36249 14.75 8.71717 14.7354 9.0607 14.7075L8.9393 13.2125ZM9 16.75C6.5454 16.75 5.19843 16.4033 4.4897 16.0089C3.84293 15.6489 3.75 15.2693 3.75 15H2.25C2.25 15.8353 2.65707 16.7056 3.7603 17.3196C4.80157 17.899 6.4546 18.25 9 18.25V16.75ZM2.25 6V18H3.75V6H2.25ZM12.25 6V9H13.75V6H12.25ZM17.5303 5.53033L19.5303 3.53033L18.4697 2.46967L16.4697 4.46967L17.5303 5.53033ZM18.4697 3.53033L20.4697 5.53033L21.5303 4.46967L19.5303 2.46967L18.4697 3.53033ZM18.25 3V8H19.75V3H18.25Z" fill="#0085FF"/>
</svg>
