<svg width="24" height="24" viewBox="0 0 24 24" fill="none" xmlns="http://www.w3.org/2000/svg">
<path d="M7.99997 17C7.99997 19.2091 9.79083 21 12 21C14.2091 21 16 19.2091 16 17M18.5831 17H5.41686C4.72592 17 4.24317 16.316 4.47464 15.665L5.33419 13.2475C5.62773 12.4219 5.77775 11.5522 5.77775 10.676V9.22222C5.77775 5.78578 8.56353 3 12 3C15.4364 3 18.2222 5.78578 18.2222 9.22222V10.676C18.2222 11.5522 18.3722 12.4219 18.6658 13.2475L19.5253 15.665C19.7568 16.316 19.274 17 18.5831 17Z" stroke="#202246" stroke-width="1.5"/>
</svg>
