<svg width="24" height="24" viewBox="0 0 24 24" fill="none" xmlns="http://www.w3.org/2000/svg">
<path d="M10 10.0001V9.00011C10 7.89555 10.8954 7.00011 12 7.00011C13.1046 7.00011 14 7.89555 14 9.00011V10.0001M11.6489 3.13179L4.64888 5.75679C4.25857 5.90315 4 6.27627 4 6.69312V10.0001C4 13.1477 5.48194 16.1116 8 18.0001L9 18.7501C10.7778 20.0834 13.2222 20.0834 15 18.7501L16 18.0001C18.5181 16.1116 20 13.1477 20 10.0001V6.69312C20 6.27627 19.7414 5.90315 19.3511 5.75679L12.3511 3.13179C12.1247 3.04689 11.8753 3.04689 11.6489 3.13179ZM9 10.5001V14.5001C9 14.7763 9.22386 15.0001 9.5 15.0001H14.5C14.7761 15.0001 15 14.7763 15 14.5001V10.5001C15 10.224 14.7761 10.0001 14.5 10.0001H9.5C9.22386 10.0001 9 10.224 9 10.5001Z" stroke="#97A2AC" stroke-width="1.5" stroke-linecap="round" stroke-linejoin="round"/>
</svg>
