<svg width="24" height="24" viewBox="0 0 24 24" fill="none" xmlns="http://www.w3.org/2000/svg">
<path d="M10.5167 3.29205C11.2131 2.21613 12.7873 2.21613 13.4837 3.29205L14.1164 4.26968C14.515 4.88553 15.2527 5.19107 15.97 5.03744L17.1087 4.79357C18.3619 4.52518 19.475 5.63833 19.2066 6.89152L18.9628 8.03023C18.8091 8.74754 19.1147 9.48517 19.7305 9.88376L20.7082 10.5165C21.7841 11.2129 21.7841 12.7871 20.7082 13.4835L19.7305 14.1162C19.1147 14.5148 18.8091 15.2524 18.9628 15.9697L19.2066 17.1084C19.475 18.3616 18.3619 19.4748 17.1087 19.2064L15.97 18.9625C15.2527 18.8089 14.515 19.1144 14.1164 19.7303L13.4837 20.7079C12.7873 21.7838 11.2131 21.7838 10.5168 20.7079L9.884 19.7303C9.48542 19.1144 8.74778 18.8089 8.03047 18.9625L6.89176 19.2064C5.63857 19.4748 4.52542 18.3616 4.79381 17.1084L5.03769 15.9697C5.19131 15.2524 4.88577 14.5148 4.26993 14.1162L3.29229 13.4835C2.21637 12.7871 2.21637 11.2129 3.29229 10.5165L4.26993 9.88376C4.88577 9.48517 5.19131 8.74754 5.03769 8.03023L4.79381 6.89152C4.52542 5.63833 5.63857 4.52518 6.89176 4.79357L8.03047 5.03744C8.74778 5.19107 9.48542 4.88553 9.884 4.26968L10.5167 3.29205Z" stroke="#97A2AC" stroke-width="1.5"/>
<path d="M15.0002 12C15.0002 13.6568 13.6571 15 12.0002 15C10.3434 15 9.00022 13.6568 9.00022 12C9.00022 10.3431 10.3434 8.99998 12.0002 8.99998C13.6571 8.99998 15.0002 10.3431 15.0002 12Z" stroke="#97A2AC" stroke-width="1.5"/>
</svg>
