<svg width="16" height="16" viewBox="0 0 16 16" fill="none" xmlns="http://www.w3.org/2000/svg">
<path d="M7.66372 1.18137C7.80128 0.902652 8.19872 0.902653 8.33628 1.18137L10.3374 5.23601C10.392 5.34669 10.4976 5.42341 10.6197 5.44115L15.0943 6.09135C15.4019 6.13604 15.5247 6.51403 15.3021 6.73098L12.0643 9.88708C11.9759 9.97323 11.9356 10.0974 11.9564 10.219L12.7208 14.6755C12.7733 14.9818 12.4518 15.2154 12.1767 15.0708L8.1745 12.9667C8.06526 12.9093 7.93474 12.9093 7.8255 12.9667L3.82332 15.0708C3.54821 15.2154 3.22668 14.9818 3.27922 14.6755L4.04356 10.219C4.06443 10.0974 4.0241 9.97323 3.93572 9.88708L0.697889 6.73098C0.47532 6.51403 0.598137 6.13604 0.90572 6.09135L5.38029 5.44115C5.50243 5.42341 5.60801 5.34669 5.66264 5.23601L7.66372 1.18137Z" fill="white" stroke="white" stroke-width="1.125"/>
</svg>
