<svg width="20" height="20" viewBox="0 0 20 20" fill="none" xmlns="http://www.w3.org/2000/svg">
<path d="M9.55163 0.908493C9.73504 0.53687 10.265 0.53687 10.4484 0.908493L13.1165 6.31469C13.1893 6.46226 13.3301 6.56454 13.493 6.58821L19.459 7.45513C19.8691 7.51472 20.0329 8.01871 19.7361 8.30798L15.419 12.5161C15.3012 12.631 15.2474 12.7965 15.2752 12.9587L16.2944 18.9007C16.3644 19.3091 15.9357 19.6206 15.5689 19.4277L10.2327 16.6223C10.087 16.5457 9.91299 16.5457 9.76733 16.6223L4.4311 19.4277C4.06428 19.6206 3.63557 19.3091 3.70562 18.9007L4.72475 12.9587C4.75257 12.7965 4.6988 12.631 4.58096 12.5161L0.263854 8.30798C-0.032905 8.01871 0.13085 7.51472 0.54096 7.45513L6.50705 6.58821C6.6699 6.56454 6.81069 6.46226 6.88352 6.31469L9.55163 0.908493Z" fill="#FFA756"/>
</svg>
