<svg width="22" height="22" viewBox="0 0 22 22" fill="none" xmlns="http://www.w3.org/2000/svg">
<path d="M10.5516 1.90849C10.735 1.53687 11.265 1.53687 11.4484 1.90849L14.1165 7.31469C14.1893 7.46226 14.3301 7.56454 14.493 7.58821L20.459 8.45513C20.8691 8.51472 21.0329 9.01871 20.7361 9.30798L16.419 13.5161C16.3012 13.631 16.2474 13.7965 16.2752 13.9587L17.2944 19.9007C17.3644 20.3091 16.9357 20.6206 16.5689 20.4277L11.2327 17.6223C11.087 17.5457 10.913 17.5457 10.7673 17.6223L5.4311 20.4277C5.06428 20.6206 4.63557 20.3091 4.70562 19.9007L5.72475 13.9587C5.75257 13.7965 5.6988 13.631 5.58095 13.5161L1.26385 9.30798C0.967095 9.01871 1.13085 8.51472 1.54096 8.45513L7.50705 7.58821C7.6699 7.56454 7.81069 7.46226 7.88352 7.31469L10.5516 1.90849Z" stroke="#202246" stroke-width="1.5"/>
</svg>
