<svg width="24" height="24" viewBox="0 0 24 24" fill="none" xmlns="http://www.w3.org/2000/svg">
<path d="M11.5516 2.90849C11.735 2.53687 12.265 2.53687 12.4484 2.90849L15.1165 8.31469C15.1893 8.46226 15.3301 8.56454 15.493 8.58821L21.459 9.45513C21.8691 9.51472 22.0329 10.0187 21.7361 10.308L17.419 14.5161C17.3012 14.631 17.2474 14.7965 17.2752 14.9587L18.2944 20.9007C18.3644 21.3091 17.9357 21.6206 17.5689 21.4277L12.2327 18.6223C12.087 18.5457 11.913 18.5457 11.7673 18.6223L6.4311 21.4277C6.06428 21.6206 5.63557 21.3091 5.70562 20.9007L6.72475 14.9587C6.75257 14.7965 6.6988 14.631 6.58095 14.5161L2.26385 10.308C1.9671 10.0187 2.13085 9.51472 2.54096 9.45513L8.50705 8.58821C8.6699 8.56454 8.81069 8.46226 8.88352 8.31469L11.5516 2.90849Z" stroke="#202246" stroke-width="1.5"/>
</svg>
